<svg width="100" height="60" viewBox="0 0 100 60" fill="none" xmlns="http://www.w3.org/2000/svg">
<path d="M42.36 18.856C40.184 21.4587 38.6267 23.72 37.688 25.64C36.7493 27.5173 36.1947 29.6293 36.024 31.976L41.016 34.92V36.904L30.072 42.28L27.64 32.616L39.928 17L42.36 18.92V18.856ZM25.72 18.856C23.544 21.4587 21.9867 23.72 21.048 25.64C20.1093 27.5173 19.5547 29.6293 19.384 31.976L24.376 34.92V36.904L13.432 42.28L11 32.616L23.288 17L25.72 18.92V18.856Z" fill="#FFEF6F"/>
<path d="M75.96 42.344L73.528 40.424C75.704 37.8213 77.2613 35.5813 78.2 33.704C79.1387 31.784 79.6933 29.6507 79.864 27.304L74.872 24.36V22.376L85.816 17L88.248 26.728L75.96 42.344ZM59.32 42.344L56.888 40.424C59.064 37.8213 60.6213 35.5813 61.56 33.704C62.4987 31.784 63.0533 29.6507 63.224 27.304L58.232 24.36V22.376L69.176 17L71.608 26.728L59.32 42.344Z" fill="#FFEF6F"/>
</svg>
